# xmcd CD database file
#
# Track frame offsets:
#	150
#	9472
#	23772
#	42565
#	66245
#	92392
#	111755
#	130085
#	149885
#	166047
#	187077
#	207630
#
# Disc length: 2958 seconds
#
# Revision: 3
# Processed by: cddbd v1.5.2PL0 Copyright (c) Steve Scherf et al.
# Submitted via: CDex 1.51
#
DISCID=ab0b8c0c
DTITLE=たま - 犬の約束
DYEAR=1992
DGENRE=フォーク
TTITLE0=リヤカーマン
TTITLE1=夜のどん帳
TTITLE2=牛乳
TTITLE3=夏の前日
TTITLE4=たかえさん
TTITLE5=ねむけざましのうた
TTITLE6=温度計
TTITLE7=くだもの
TTITLE8=自転車
TTITLE9=みみのびる
TTITLE10=ガウディさん
TTITLE11=あくびの途中で
EXTD=YEAR: 1992
EXTT0=
EXTT1=
EXTT2=
EXTT3=
EXTT4=
EXTT5=
EXTT6=
EXTT7=
EXTT8=
EXTT9=
EXTT10=
EXTT11=
PLAYORDER=
